<?xml version="1.0" encoding="utf-8"?>
<!-- Generator: Adobe Illustrator 23.0.1, SVG Export Plug-In . SVG Version: 6.00 Build 0)  -->
<svg version="1.1" id="Camada_1" xmlns="http://www.w3.org/2000/svg" xmlns:xlink="http://www.w3.org/1999/xlink" x="0px" y="0px"
	 viewBox="0 0 1601.17 1365.27" style="enable-background:new 0 0 1601.17 1365.27;" xml:space="preserve">
<style type="text/css">
	.st0{fill:#FFC000;}
	.st1{clip-path:url(#SVGID_2_);}
	.st2{fill:#595959;}
	.st3{clip-path:url(#SVGID_3_);}
	.st4{fill:#0B5C89;}
	.st5{fill:#AFAFAF;}
	.st6{fill:#515151;}
	.st7{fill:#FFFFFF;}
	.st8{fill:#3D3D3D;}
	.st9{fill:url(#SVGID_4_);}
	.st10{fill:#ADADAD;}
	.st11{fill:url(#SVGID_5_);}
	.st12{fill:url(#SVGID_6_);}
	.st13{fill:url(#SVGID_8_);}
	.st14{fill:url(#SVGID_9_);}
	.st15{fill:url(#SVGID_10_);}
	.st16{fill:url(#SVGID_11_);}
	.st17{fill:url(#SVGID_12_);}
	.st18{fill:url(#SVGID_13_);}
	.st19{fill:url(#SVGID_14_);}
	.st20{fill:url(#SVGID_15_);}
	.st21{fill:url(#SVGID_16_);}
	.st22{fill:url(#SVGID_17_);}
	.st23{fill:none;stroke:#FFFFFF;stroke-width:8;stroke-linejoin:round;stroke-miterlimit:10;}
	.st24{fill:none;stroke:url(#SVGID_18_);stroke-width:8;stroke-linejoin:round;stroke-miterlimit:10;}
	.st25{fill:url(#SVGID_19_);}
	.st26{fill:none;stroke:#3D3D3D;stroke-width:8;stroke-linejoin:round;stroke-miterlimit:10;}
	.st27{fill:none;stroke:url(#SVGID_20_);stroke-width:8;stroke-linejoin:round;stroke-miterlimit:10;}
	.st28{fill:url(#SVGID_21_);}
	.st29{fill:#C4C4C4;}
	.st30{fill:url(#SVGID_22_);}
	.st31{fill:url(#SVGID_23_);}
	.st32{fill:url(#SVGID_24_);}
	.st33{fill:url(#SVGID_25_);}
	.st34{fill:url(#SVGID_26_);}
	.st35{fill:url(#SVGID_27_);}
	.st36{fill:url(#SVGID_28_);}
	.st37{fill:url(#SVGID_29_);}
	.st38{fill:url(#SVGID_30_);}
	.st39{fill:url(#SVGID_31_);}
	.st40{clip-path:url(#SVGID_32_);}
	.st41{fill:#58585B;}
	.st42{clip-path:url(#SVGID_33_);}
	.st43{fill:#E8AE3A;}
	.st44{fill:#CBCBCC;}
</style>
<g>
	<g>
		<path class="st8" d="M1295.08,767.63c-16.36-27.96-41-48.11-67-63.68c11.23,10.28,21.89,21.05,30.97,32.87
			c9.27,11.62,16.98,24.28,22.24,37.56c5.11,13.3,8.1,27.1,7.5,40.68c-0.57,13.57-4.09,26.69-10.18,38.67
			c-12.09,24.09-32.63,43.99-55.85,60.14c-23.16,16.38-49.27,29.22-76.04,40.31c-53.94,21.75-111.48,35.64-169.62,44.77
			c-29.12,4.45-58.44,7.93-87.91,9.96c-28.43,2.12-56.97,3.26-85.52,3.26c-1.02,0-2.04,0-3.05,0c-0.51,0-1.01,0-1.52,0
			c-29.06,0-58.12-1.08-87.05-3.3c-29.46-2.04-58.79-5.47-87.9-9.98c-58.15-9.1-115.66-23.06-169.6-44.77
			c-26.76-11.11-52.88-23.91-76.02-40.3c-11.62-8.1-22.58-17.04-32.07-27.08c-9.57-9.96-17.79-20.99-23.77-33.02
			c-6.09-11.98-9.62-25.08-10.19-38.64c-0.62-13.57,2.39-27.36,7.48-40.66c5.25-13.28,12.96-25.94,22.22-37.56
			c9.07-11.83,19.72-22.6,30.95-32.89c-26.01,15.55-50.66,35.69-67.04,63.66c-8.17,13.86-13.71,29.9-15.19,46.66
			c-1.5,16.74,0.82,34.02,6.51,49.95c11.69,31.97,34.05,57.89,58.63,78.51c12.24,10.6,25.44,19.74,38.92,28.24
			c13.46,8.59,27.42,16.08,41.6,23.09c28.38,13.93,57.81,25.1,87.7,34.4c29.86,9.43,60.28,16.6,90.87,22.49
			c30.61,5.82,61.49,9.84,92.43,12.75c30.96,2.68,62.01,4.02,93.05,4.15c31.04-0.18,62.09-1.46,93.05-4.2
			c30.94-2.92,61.82-6.9,92.42-12.77c30.59-5.86,61-13.08,90.86-22.5c29.88-9.29,59.3-20.49,87.69-34.4
			c7.05-3.61,14.18-6.96,21.05-10.99l10.36-5.85l10.18-6.26c13.48-8.49,26.66-17.64,38.91-28.23
			c24.57-20.61,46.93-46.52,58.61-78.47c5.69-15.92,8.01-33.19,6.52-49.92C1308.79,797.51,1303.25,781.49,1295.08,767.63z"/>
		<linearGradient id="SVGID_2_" gradientUnits="userSpaceOnUse" x1="828.4923" y1="986.4705" x2="766.8497" y2="306.1182">
			<stop  offset="0" style="stop-color:#FB8300"/>
			<stop  offset="1" style="stop-color:#FFC000"/>
		</linearGradient>
		<path style="fill:url(#SVGID_2_);" d="M636.4,972.51c-2.67-0.39-5.31-0.74-8-1.16c-62.05-9.71-115.49-23.79-163.31-43.03
			c-2.55-1.06-4.97-2.11-7.41-3.16V611.7c0-9.41,5.09-18.09,13.3-22.68l126.73-70.97c17.33-9.71,38.7,2.82,38.7,22.69V972.51z
			 M889.95,980.9c-0.88,0.06-1.79,0.15-2.67,0.21c-28.47,2.12-56.55,3.2-83.61,3.2l-2.97,0l-1.6,0c-28.56,0-57.13-1.08-84.91-3.22
			c-0.97-0.07-1.98-0.17-2.96-0.24V394.43c0-9.41,5.08-18.09,13.3-22.69l126.73-70.97c17.33-9.71,38.7,2.82,38.7,22.68V980.9z
			 M1143.5,925.28c-2.45,1.05-4.88,2.11-7.43,3.16c-47.32,19.08-100.81,33.18-163.29,42.99c-2.72,0.42-5.32,0.76-8,1.15V503.95
			c0-9.41,5.09-18.09,13.3-22.68l126.73-70.97c17.33-9.71,38.7,2.82,38.7,22.69V925.28z"/>
	</g>
</g>
</svg>
